<mxfile modified="2020-09-21T13:37:17.254Z" host="b8ffcc14-906b-4ee3-b7da-1d1722f8c5fb" agent="5.0 (Macintosh; Intel Mac OS X 10_15_6) AppleWebKit/537.36 (KHTML, like Gecko) Code/1.49.1 Chrome/83.0.4103.122 Electron/9.2.1 Safari/537.36" etag="RODuuH8bxmqrAfcvc_qU" version="13.1.3">
    <diagram id="AJf97R4f30Y3O41-t7g2" name="Page-1">
        <mxGraphModel dx="1041" dy="815" grid="1" gridSize="10" guides="1" tooltips="1" connect="1" arrows="1" fold="1" page="1" pageScale="1" pageWidth="827" pageHeight="1169" math="0" shadow="0">
            <root>
                <mxCell id="0"/>
                <mxCell id="1" parent="0"/>
                <mxCell id="551wH-trqpbK1FresVAz-1" style="edgeStyle=orthogonalEdgeStyle;rounded=0;orthogonalLoop=1;jettySize=auto;html=1;entryX=0;entryY=0.5;entryDx=0;entryDy=0;endArrow=none;endFill=0;" parent="1" source="551wH-trqpbK1FresVAz-3" target="551wH-trqpbK1FresVAz-12" edge="1">
                    <mxGeometry relative="1" as="geometry"/>
                </mxCell>
                <mxCell id="551wH-trqpbK1FresVAz-2" style="edgeStyle=orthogonalEdgeStyle;rounded=0;orthogonalLoop=1;jettySize=auto;html=1;entryX=0.5;entryY=1;entryDx=0;entryDy=0;endArrow=none;endFill=0;" parent="1" source="551wH-trqpbK1FresVAz-3" target="551wH-trqpbK1FresVAz-29" edge="1">
                    <mxGeometry relative="1" as="geometry">
                        <mxPoint x="110" y="190" as="targetPoint"/>
                    </mxGeometry>
                </mxCell>
                <mxCell id="551wH-trqpbK1FresVAz-3" value="Category" style="strokeWidth=2;whiteSpace=wrap;html=1;align=center;fontSize=14;" parent="1" vertex="1">
                    <mxGeometry x="60" y="230" width="100" height="40" as="geometry"/>
                </mxCell>
                <mxCell id="551wH-trqpbK1FresVAz-4" value="User" style="strokeWidth=2;whiteSpace=wrap;html=1;align=center;fontSize=14;" parent="1" vertex="1">
                    <mxGeometry x="350" y="670" width="90" height="40" as="geometry"/>
                </mxCell>
                <mxCell id="551wH-trqpbK1FresVAz-5" value="Record" style="strokeWidth=2;whiteSpace=wrap;html=1;align=center;fontSize=14;" parent="1" vertex="1">
                    <mxGeometry x="350" y="230" width="90" height="40" as="geometry"/>
                </mxCell>
                <mxCell id="551wH-trqpbK1FresVAz-6" style="edgeStyle=orthogonalEdgeStyle;rounded=0;orthogonalLoop=1;jettySize=auto;html=1;entryX=0.5;entryY=0;entryDx=0;entryDy=0;endArrow=none;endFill=0;shape=link;" parent="1" source="551wH-trqpbK1FresVAz-7" target="551wH-trqpbK1FresVAz-4" edge="1">
                    <mxGeometry relative="1" as="geometry"/>
                </mxCell>
                <mxCell id="551wH-trqpbK1FresVAz-7" value="Has" style="shape=rhombus;strokeWidth=2;fontSize=17;perimeter=rhombusPerimeter;whiteSpace=wrap;html=1;align=center;fontSize=14;" parent="1" vertex="1">
                    <mxGeometry x="360" y="555" width="70" height="60" as="geometry"/>
                </mxCell>
                <mxCell id="551wH-trqpbK1FresVAz-8" style="edgeStyle=orthogonalEdgeStyle;rounded=0;orthogonalLoop=1;jettySize=auto;html=1;endArrow=none;endFill=0;exitX=0.5;exitY=1;exitDx=0;exitDy=0;entryX=0.5;entryY=0;entryDx=0;entryDy=0;shape=link;" parent="1" target="551wH-trqpbK1FresVAz-7" edge="1">
                    <mxGeometry relative="1" as="geometry">
                        <mxPoint x="395" y="490" as="sourcePoint"/>
                        <mxPoint x="480" y="540" as="targetPoint"/>
                    </mxGeometry>
                </mxCell>
                <mxCell id="551wH-trqpbK1FresVAz-9" value="1" style="text;html=1;resizable=0;points=[];autosize=1;align=left;verticalAlign=top;spacingTop=-4;" parent="1" vertex="1">
                    <mxGeometry x="375" y="650" width="20" height="20" as="geometry"/>
                </mxCell>
                <mxCell id="551wH-trqpbK1FresVAz-10" value="N" style="text;html=1;resizable=0;points=[];autosize=1;align=left;verticalAlign=top;spacingTop=-4;" parent="1" vertex="1">
                    <mxGeometry x="375" y="490" width="20" height="20" as="geometry"/>
                </mxCell>
                <mxCell id="551wH-trqpbK1FresVAz-11" style="edgeStyle=orthogonalEdgeStyle;rounded=0;orthogonalLoop=1;jettySize=auto;html=1;entryX=0;entryY=0.5;entryDx=0;entryDy=0;endArrow=none;endFill=0;shape=link;" parent="1" source="551wH-trqpbK1FresVAz-12" target="551wH-trqpbK1FresVAz-5" edge="1">
                    <mxGeometry relative="1" as="geometry"/>
                </mxCell>
                <mxCell id="551wH-trqpbK1FresVAz-12" value="Has" style="shape=rhombus;strokeWidth=2;fontSize=17;perimeter=rhombusPerimeter;whiteSpace=wrap;html=1;align=center;fontSize=14;" parent="1" vertex="1">
                    <mxGeometry x="230" y="220" width="70" height="60" as="geometry"/>
                </mxCell>
                <mxCell id="551wH-trqpbK1FresVAz-13" style="edgeStyle=orthogonalEdgeStyle;shape=link;rounded=0;orthogonalLoop=1;jettySize=auto;html=1;entryX=0.5;entryY=1;entryDx=0;entryDy=0;endArrow=none;endFill=0;exitX=0.5;exitY=0;exitDx=0;exitDy=0;" parent="1" source="551wH-trqpbK1FresVAz-29" target="551wH-trqpbK1FresVAz-28" edge="1">
                    <mxGeometry relative="1" as="geometry">
                        <mxPoint x="110" y="130" as="sourcePoint"/>
                        <mxPoint x="110" y="80" as="targetPoint"/>
                    </mxGeometry>
                </mxCell>
                <mxCell id="551wH-trqpbK1FresVAz-14" value="N" style="text;html=1;resizable=0;points=[];autosize=1;align=left;verticalAlign=top;spacingTop=-4;" parent="1" vertex="1">
                    <mxGeometry x="330" y="250" width="20" height="20" as="geometry"/>
                </mxCell>
                <mxCell id="551wH-trqpbK1FresVAz-15" value="1" style="text;html=1;resizable=0;points=[];autosize=1;align=left;verticalAlign=top;spacingTop=-4;" parent="1" vertex="1">
                    <mxGeometry x="160" y="250" width="20" height="20" as="geometry"/>
                </mxCell>
                <mxCell id="551wH-trqpbK1FresVAz-16" value="1" style="text;html=1;resizable=0;points=[];autosize=1;align=left;verticalAlign=top;spacingTop=-4;" parent="1" vertex="1">
                    <mxGeometry x="90" y="210" width="20" height="20" as="geometry"/>
                </mxCell>
                <mxCell id="551wH-trqpbK1FresVAz-17" value="1" style="text;html=1;resizable=0;points=[];autosize=1;align=left;verticalAlign=top;spacingTop=-4;" parent="1" vertex="1">
                    <mxGeometry x="90" y="80" width="20" height="20" as="geometry"/>
                </mxCell>
                <mxCell id="551wH-trqpbK1FresVAz-18" style="rounded=0;orthogonalLoop=1;jettySize=auto;html=1;exitX=1;exitY=0;exitDx=0;exitDy=0;endArrow=none;endFill=0;entryX=0.25;entryY=1;entryDx=0;entryDy=0;" parent="1" source="551wH-trqpbK1FresVAz-19" target="551wH-trqpbK1FresVAz-5" edge="1">
                    <mxGeometry relative="1" as="geometry">
                        <mxPoint x="350" y="290" as="targetPoint"/>
                    </mxGeometry>
                </mxCell>
                <mxCell id="551wH-trqpbK1FresVAz-19" value="note" style="ellipse;whiteSpace=wrap;html=1;" parent="1" vertex="1">
                    <mxGeometry x="285" y="295" width="65" height="40" as="geometry"/>
                </mxCell>
                <mxCell id="551wH-trqpbK1FresVAz-20" value="datetime" style="ellipse;whiteSpace=wrap;html=1;" parent="1" vertex="1">
                    <mxGeometry x="450" y="160" width="75" height="50" as="geometry"/>
                </mxCell>
                <mxCell id="551wH-trqpbK1FresVAz-21" value="entity" style="ellipse;whiteSpace=wrap;html=1;" parent="1" vertex="1">
                    <mxGeometry x="295" y="170" width="65" height="40" as="geometry"/>
                </mxCell>
                <mxCell id="551wH-trqpbK1FresVAz-22" value="ammount" style="ellipse;whiteSpace=wrap;html=1;" parent="1" vertex="1">
                    <mxGeometry x="375" y="160" width="65" height="40" as="geometry"/>
                </mxCell>
                <mxCell id="551wH-trqpbK1FresVAz-24" value="" style="endArrow=none;html=1;entryX=1;entryY=1;entryDx=0;entryDy=0;exitX=0.25;exitY=0;exitDx=0;exitDy=0;" parent="1" source="551wH-trqpbK1FresVAz-5" target="551wH-trqpbK1FresVAz-21" edge="1">
                    <mxGeometry width="50" height="50" relative="1" as="geometry">
                        <mxPoint x="50" y="560" as="sourcePoint"/>
                        <mxPoint x="100" y="510" as="targetPoint"/>
                    </mxGeometry>
                </mxCell>
                <mxCell id="551wH-trqpbK1FresVAz-26" value="" style="endArrow=none;html=1;entryX=0.5;entryY=1;entryDx=0;entryDy=0;exitX=0.5;exitY=0;exitDx=0;exitDy=0;" parent="1" source="551wH-trqpbK1FresVAz-5" target="551wH-trqpbK1FresVAz-22" edge="1">
                    <mxGeometry width="50" height="50" relative="1" as="geometry">
                        <mxPoint x="370" y="230" as="sourcePoint"/>
                        <mxPoint x="100" y="510" as="targetPoint"/>
                    </mxGeometry>
                </mxCell>
                <mxCell id="551wH-trqpbK1FresVAz-27" value="" style="endArrow=none;html=1;entryX=0;entryY=1;entryDx=0;entryDy=0;exitX=0.75;exitY=0;exitDx=0;exitDy=0;" parent="1" source="551wH-trqpbK1FresVAz-5" target="551wH-trqpbK1FresVAz-20" edge="1">
                    <mxGeometry width="50" height="50" relative="1" as="geometry">
                        <mxPoint x="50" y="630" as="sourcePoint"/>
                        <mxPoint x="100" y="580" as="targetPoint"/>
                    </mxGeometry>
                </mxCell>
                <mxCell id="551wH-trqpbK1FresVAz-28" value="Subcategory" style="shape=ext;strokeWidth=2;margin=10;double=1;whiteSpace=wrap;html=1;align=center;fontSize=14;" parent="1" vertex="1">
                    <mxGeometry x="50" y="20" width="120" height="60" as="geometry"/>
                </mxCell>
                <mxCell id="551wH-trqpbK1FresVAz-29" value="Has" style="shape=rhombus;double=1;strokeWidth=2;fontSize=17;perimeter=rhombusPerimeter;whiteSpace=wrap;html=1;align=center;fontSize=14;" parent="1" vertex="1">
                    <mxGeometry x="75" y="125" width="70" height="70" as="geometry"/>
                </mxCell>
                <mxCell id="551wH-trqpbK1FresVAz-30" value="Expense" style="strokeWidth=2;whiteSpace=wrap;html=1;align=center;fontSize=14;" parent="1" vertex="1">
                    <mxGeometry x="557.5" y="265" width="90" height="40" as="geometry"/>
                </mxCell>
                <mxCell id="551wH-trqpbK1FresVAz-31" value="Income" style="strokeWidth=2;whiteSpace=wrap;html=1;align=center;fontSize=14;" parent="1" vertex="1">
                    <mxGeometry x="557.5" y="195" width="90" height="40" as="geometry"/>
                </mxCell>
                <mxCell id="551wH-trqpbK1FresVAz-32" value="d" style="ellipse;whiteSpace=wrap;html=1;aspect=fixed;" parent="1" vertex="1">
                    <mxGeometry x="487.5" y="240" width="20" height="20" as="geometry"/>
                </mxCell>
                <mxCell id="551wH-trqpbK1FresVAz-33" value="" style="endArrow=none;html=1;exitX=1;exitY=0.5;exitDx=0;exitDy=0;entryX=0;entryY=0.5;entryDx=0;entryDy=0;shape=link;" parent="1" source="551wH-trqpbK1FresVAz-5" target="551wH-trqpbK1FresVAz-32" edge="1">
                    <mxGeometry width="50" height="50" relative="1" as="geometry">
                        <mxPoint x="50" y="560" as="sourcePoint"/>
                        <mxPoint x="100" y="510" as="targetPoint"/>
                    </mxGeometry>
                </mxCell>
                <mxCell id="551wH-trqpbK1FresVAz-34" value="" style="endArrow=none;html=1;entryX=0;entryY=0.5;entryDx=0;entryDy=0;exitX=1;exitY=0.5;exitDx=0;exitDy=0;" parent="1" source="551wH-trqpbK1FresVAz-32" target="551wH-trqpbK1FresVAz-31" edge="1">
                    <mxGeometry width="50" height="50" relative="1" as="geometry">
                        <mxPoint x="47.5" y="585" as="sourcePoint"/>
                        <mxPoint x="97.5" y="535" as="targetPoint"/>
                    </mxGeometry>
                </mxCell>
                <mxCell id="551wH-trqpbK1FresVAz-35" value="" style="endArrow=none;html=1;exitX=1;exitY=0.5;exitDx=0;exitDy=0;entryX=0;entryY=0.5;entryDx=0;entryDy=0;" parent="1" source="551wH-trqpbK1FresVAz-32" target="551wH-trqpbK1FresVAz-30" edge="1">
                    <mxGeometry width="50" height="50" relative="1" as="geometry">
                        <mxPoint x="47.5" y="655" as="sourcePoint"/>
                        <mxPoint x="97.5" y="605" as="targetPoint"/>
                    </mxGeometry>
                </mxCell>
                <mxCell id="MtKFrFk9XjCfMU_lV5Ve-1" value="Money Deposit" style="strokeWidth=2;whiteSpace=wrap;html=1;align=center;fontSize=14;" parent="1" vertex="1">
                    <mxGeometry x="350" y="450" width="90" height="40" as="geometry"/>
                </mxCell>
                <mxCell id="MtKFrFk9XjCfMU_lV5Ve-2" style="edgeStyle=orthogonalEdgeStyle;rounded=0;orthogonalLoop=1;jettySize=auto;html=1;entryX=0.5;entryY=0;entryDx=0;entryDy=0;endArrow=none;endFill=0;" parent="1" source="MtKFrFk9XjCfMU_lV5Ve-3" edge="1">
                    <mxGeometry relative="1" as="geometry">
                        <mxPoint x="395" y="450" as="targetPoint"/>
                    </mxGeometry>
                </mxCell>
                <mxCell id="MtKFrFk9XjCfMU_lV5Ve-3" value="Has" style="shape=rhombus;strokeWidth=2;fontSize=17;perimeter=rhombusPerimeter;whiteSpace=wrap;html=1;align=center;fontSize=14;" parent="1" vertex="1">
                    <mxGeometry x="360" y="335" width="70" height="60" as="geometry"/>
                </mxCell>
                <mxCell id="MtKFrFk9XjCfMU_lV5Ve-4" style="edgeStyle=orthogonalEdgeStyle;rounded=0;orthogonalLoop=1;jettySize=auto;html=1;endArrow=none;endFill=0;exitX=0.5;exitY=1;exitDx=0;exitDy=0;entryX=0.5;entryY=0;entryDx=0;entryDy=0;shape=link;" parent="1" target="MtKFrFk9XjCfMU_lV5Ve-3" edge="1">
                    <mxGeometry relative="1" as="geometry">
                        <mxPoint x="395" y="270" as="sourcePoint"/>
                        <mxPoint x="480" y="320" as="targetPoint"/>
                    </mxGeometry>
                </mxCell>
                <mxCell id="MtKFrFk9XjCfMU_lV5Ve-5" value="1" style="text;html=1;resizable=0;points=[];autosize=1;align=left;verticalAlign=top;spacingTop=-4;" parent="1" vertex="1">
                    <mxGeometry x="375" y="430" width="20" height="20" as="geometry"/>
                </mxCell>
                <mxCell id="MtKFrFk9XjCfMU_lV5Ve-6" value="N" style="text;html=1;resizable=0;points=[];autosize=1;align=left;verticalAlign=top;spacingTop=-4;" parent="1" vertex="1">
                    <mxGeometry x="375" y="270" width="20" height="20" as="geometry"/>
                </mxCell>
                <mxCell id="MtKFrFk9XjCfMU_lV5Ve-7" value="ammount" style="ellipse;whiteSpace=wrap;html=1;" parent="1" vertex="1">
                    <mxGeometry x="465" y="450" width="65" height="40" as="geometry"/>
                </mxCell>
                <mxCell id="MtKFrFk9XjCfMU_lV5Ve-8" value="" style="endArrow=none;html=1;entryX=0;entryY=0.5;entryDx=0;entryDy=0;exitX=1;exitY=0.5;exitDx=0;exitDy=0;" parent="1" source="MtKFrFk9XjCfMU_lV5Ve-1" target="MtKFrFk9XjCfMU_lV5Ve-7" edge="1">
                    <mxGeometry width="50" height="50" relative="1" as="geometry">
                        <mxPoint x="390" y="410" as="sourcePoint"/>
                        <mxPoint x="440" y="360" as="targetPoint"/>
                    </mxGeometry>
                </mxCell>
                <mxCell id="3" style="rounded=0;orthogonalLoop=1;jettySize=auto;html=1;exitX=1;exitY=0.5;exitDx=0;exitDy=0;entryX=0;entryY=0.25;entryDx=0;entryDy=0;endArrow=none;endFill=0;" edge="1" parent="1" source="2" target="MtKFrFk9XjCfMU_lV5Ve-1">
                    <mxGeometry relative="1" as="geometry"/>
                </mxCell>
                <mxCell id="2" value="name" style="ellipse;whiteSpace=wrap;html=1;" vertex="1" parent="1">
                    <mxGeometry x="260" y="430" width="60" height="30" as="geometry"/>
                </mxCell>
            </root>
        </mxGraphModel>
    </diagram>
</mxfile>